<svg width="18" height="18" viewBox="0 0 18 18" fill="none" xmlns="http://www.w3.org/2000/svg">
<path d="M8.91667 1C4.54429 1 1 4.54429 1 8.91667C1 13.289 4.54429 16.8333 8.91667 16.8333C13.289 16.8333 16.8333 13.289 16.8333 8.91667C16.8333 4.54429 13.289 1 8.91667 1Z" stroke="white" stroke-width="1.2" stroke-linecap="round" stroke-linejoin="round"/>
<path d="M2.79803 13.9404C2.79803 13.9404 4.56265 11.6873 8.91682 11.6873C13.271 11.6873 15.0364 13.9404 15.0364 13.9404M8.91682 8.9165C9.54671 8.9165 10.1508 8.66628 10.5962 8.22088C11.0416 7.77548 11.2918 7.17139 11.2918 6.5415C11.2918 5.91161 11.0416 5.30752 10.5962 4.86213C10.1508 4.41673 9.54671 4.1665 8.91682 4.1665C8.28693 4.1665 7.68284 4.41673 7.23744 4.86213C6.79204 5.30752 6.54182 5.91161 6.54182 6.5415C6.54182 7.17139 6.79204 7.77548 7.23744 8.22088C7.68284 8.66628 8.28693 8.9165 8.91682 8.9165V8.9165Z" stroke="white" stroke-width="1.2" stroke-linecap="round" stroke-linejoin="round"/>
</svg>
