<svg width="22" height="22" viewBox="0 0 22 22" fill="none" xmlns="http://www.w3.org/2000/svg">
<g clip-path="url(#clip0_0_361)">
<path d="M21.4545 11.0032C21.4545 5.04224 16.6519 0.210205 10.7285 0.210205C4.80247 0.211546 -6.86646e-05 5.04224 -6.86646e-05 11.0045C-6.86646e-05 16.3903 3.92294 20.855 9.04994 21.6648V14.1231H6.32823V11.0045H9.05262V8.6247C9.05262 5.92043 10.6548 4.42684 13.1043 4.42684C14.2788 4.42684 15.5056 4.63734 15.5056 4.63734V7.29201H14.1528C12.8214 7.29201 12.4058 8.12461 12.4058 8.97866V11.0032H15.3796L14.905 14.1217H12.4045V21.6634C17.5315 20.8536 21.4545 16.3889 21.4545 11.0032Z" fill="#F7553D"/>
</g>
<defs>
<clipPath id="clip0_0_361">
<rect width="21.4546" height="21.4546" fill="white" transform="translate(-6.86646e-05 0.210205)"/>
</clipPath>
</defs>
</svg>
