<svg width="150" height="51" viewBox="0 0 150 51" fill="none" xmlns="http://www.w3.org/2000/svg">
<path d="M51.5533 13.006C51.5533 12.4209 51.8223 12.125 52.3536 12.125H63.4564C64.4853 12.125 65.4537 12.3267 66.3549 12.737C67.2627 13.1405 68.0428 13.6986 68.7153 14.3913C69.3811 15.0907 69.9124 15.9179 70.2957 16.8661C70.679 17.8143 70.874 18.8365 70.874 19.9394C70.874 20.9481 70.6992 21.8963 70.3562 22.7706C70.0132 23.6448 69.5425 24.4114 68.9372 25.0772C69.4214 25.4538 69.8586 25.8842 70.2486 26.3684C70.6386 26.8526 70.9749 27.3771 71.2573 27.942C71.5398 28.5069 71.7617 29.0987 71.9164 29.7309C72.0711 30.363 72.1518 31.0086 72.1518 31.6676C72.1518 32.7772 71.9567 33.8331 71.56 34.8351C71.1632 35.8371 70.6252 36.7113 69.946 37.478C69.2668 38.2379 68.4665 38.8431 67.5385 39.287C66.6171 39.7308 65.6286 39.9527 64.5728 39.9527H52.3603C52.1249 39.9527 51.9299 39.8855 51.782 39.7577C51.634 39.6299 51.56 39.4215 51.56 39.1457V13.0194L51.5533 13.006ZM65.7362 20.0268C65.7362 19.5493 65.6555 19.1055 65.4941 18.6952C65.3327 18.285 65.1108 17.9286 64.8283 17.626C64.5459 17.3234 64.2029 17.0947 63.8061 16.9266C63.4094 16.7585 62.9722 16.6711 62.5015 16.6711H56.6844V23.4498H62.4477C62.9252 23.4498 63.3623 23.3623 63.7658 23.1875C64.1693 23.0127 64.5122 22.7706 64.8081 22.4679C65.0973 22.1653 65.326 21.8022 65.4941 21.3785C65.6622 20.9616 65.7429 20.5043 65.7429 20.0201L65.7362 20.0268ZM66.8929 31.5062C66.8929 31.0826 66.8189 30.6656 66.6777 30.2621C66.5364 29.8586 66.3414 29.4888 66.0926 29.166C65.8438 28.8432 65.5479 28.5674 65.2049 28.3522C64.8619 28.137 64.4853 27.9891 64.0818 27.9151C63.8465 27.8748 63.6044 27.8411 63.3623 27.8142C63.1202 27.7806 62.8714 27.7672 62.6225 27.7672H56.6844V35.3731H62.6225C62.8714 35.3731 63.1135 35.3663 63.3488 35.3462C63.5842 35.326 63.8263 35.2924 64.0617 35.2453C64.4652 35.1848 64.835 35.0368 65.1847 34.8149C65.5277 34.593 65.8303 34.3105 66.0859 33.9743C66.3414 33.638 66.5364 33.2614 66.6844 32.8445C66.8256 32.4275 66.8996 31.9837 66.8996 31.5264L66.8929 31.5062Z" fill="white"/>
<path d="M94.1625 37.1619C93.1201 38.0765 91.9836 38.7961 90.7462 39.3139C89.5088 39.8384 88.1504 40.1007 86.6709 40.1007C85.0704 40.1007 83.5573 39.7914 82.1248 39.1727C80.6924 38.554 79.4349 37.6999 78.3589 36.6172C77.2829 35.5345 76.4288 34.2635 75.7967 32.8109C75.1645 31.3583 74.8485 29.7914 74.8485 28.1102C74.8485 27.0275 74.9762 26.4491 75.2385 25.4404C75.5008 24.4316 75.8707 23.4834 76.3481 22.6025C76.8256 21.7215 77.4107 20.9078 78.0966 20.1748C78.7826 19.435 79.5492 18.8096 80.3965 18.2851C81.2439 17.7605 82.1585 17.357 83.147 17.0678C84.1356 16.7787 85.178 16.6375 86.2808 16.6375C87.182 16.6375 88.0697 16.7518 88.9439 16.9737C89.8182 17.1956 90.652 17.5184 91.4389 17.9354C92.2257 18.3523 92.9654 18.8499 93.6514 19.4417C94.3373 20.0335 94.9425 20.6993 95.4604 21.439C96.1732 22.4612 96.691 23.5641 97.0205 24.7477C97.3501 25.9313 97.5182 26.7652 97.5182 28.2043C97.5182 28.5607 97.5047 28.8499 97.4711 29.092C97.4442 29.3274 97.3702 29.5224 97.2492 29.6704C97.1282 29.8183 96.9533 29.9259 96.7179 29.9932C96.4826 30.0604 96.153 30.094 95.7226 30.094H79.9729C80.1275 30.9683 80.4167 31.7484 80.8538 32.4208C81.2842 33.0933 81.7953 33.6717 82.3871 34.1357C82.9789 34.6064 83.6245 34.9561 84.3239 35.1982C85.0233 35.4336 85.7227 35.5547 86.4221 35.5547C86.9533 35.5547 87.4644 35.5009 87.9553 35.3933C88.4463 35.2857 88.9036 35.1377 89.334 34.9561C89.7576 34.7746 90.1544 34.5661 90.5175 34.324C90.8807 34.0886 91.1968 33.8398 91.4658 33.5843C91.4658 33.5708 91.4658 33.5641 91.4859 33.5641C91.6272 33.4296 91.7617 33.322 91.8962 33.2413C92.0239 33.1606 92.1652 33.1202 92.3064 33.1202C92.414 33.1202 92.535 33.1539 92.6695 33.2278C92.804 33.3018 92.9385 33.4229 93.0663 33.591C93.3891 33.9945 93.6581 34.3307 93.88 34.593C94.1019 34.862 94.2902 35.0839 94.4315 35.2655C94.5727 35.4471 94.6803 35.6085 94.7408 35.743C94.808 35.8775 94.8349 36.012 94.8349 36.1465C94.8349 36.4894 94.613 36.8257 94.1625 37.1686V37.1619ZM86.2808 21.1633C85.5814 21.1633 84.9022 21.2911 84.2365 21.5534C83.5707 21.8156 82.9655 22.1721 82.414 22.6226C81.8626 23.0732 81.3851 23.6045 80.9749 24.2097C80.5647 24.8217 80.2688 25.474 80.0805 26.1801H92.6493C92.461 25.4404 92.1719 24.7612 91.7886 24.1425C91.4052 23.5305 90.9412 22.9992 90.3965 22.5554C89.8518 22.1115 89.2331 21.7686 88.5337 21.5265C87.8343 21.2844 87.0811 21.1633 86.2808 21.1633Z" fill="white"/>
<path d="M118.614 36.9533C118.197 37.3703 117.74 37.7603 117.236 38.1235C116.731 38.4933 116.193 38.8094 115.622 39.0717C115.05 39.3407 114.438 39.5491 113.793 39.7038C113.147 39.8585 112.474 39.9325 111.775 39.9325C110.175 39.9325 108.688 39.6298 107.31 39.0179C105.931 38.4059 104.727 37.5787 103.705 36.5229C102.683 35.4671 101.876 34.2364 101.298 32.8242C100.719 31.412 100.43 29.8989 100.43 28.2849C100.43 26.6709 100.719 25.1443 101.298 23.7321C101.876 22.3199 102.676 21.0825 103.705 20.0334C104.727 18.9776 105.931 18.1504 107.31 17.5385C108.688 16.9265 110.175 16.6239 111.775 16.6239C113.221 16.6239 114.492 16.8794 115.595 17.3972C116.698 17.915 117.673 18.6144 118.527 19.5021V13.1874C118.527 12.8781 118.621 12.6225 118.809 12.4208C118.998 12.219 119.273 12.1182 119.623 12.1182H122.535C122.804 12.1182 123.06 12.2123 123.302 12.4141C123.537 12.6091 123.658 12.8646 123.658 13.1874V38.8699C123.658 39.5828 123.281 39.9325 122.522 39.9325H119.858C119.502 39.9325 119.26 39.845 119.132 39.6635C119.092 39.6029 119.045 39.5357 119.004 39.455C118.85 39.1591 118.776 38.8296 118.742 38.5L118.614 36.9466V36.9533ZM105.42 28.2916C105.42 29.2398 105.588 30.1342 105.918 30.9816C106.247 31.8289 106.711 32.5619 107.303 33.1941C107.895 33.8195 108.587 34.3171 109.388 34.687C110.188 35.0569 111.062 35.2385 112.004 35.2385C112.945 35.2385 113.819 35.0569 114.647 34.6937C115.474 34.3306 116.2 33.8397 116.812 33.221C117.424 32.6023 117.915 31.876 118.278 31.0556C118.641 30.2351 118.83 29.3541 118.856 28.4194V28.2983C118.856 27.3636 118.682 26.4692 118.325 25.6151C117.969 24.761 117.485 24.0146 116.873 23.369C116.254 22.7234 115.534 22.2123 114.7 21.8222C113.867 21.4389 112.972 21.2439 112.01 21.2439C111.049 21.2439 110.188 21.4389 109.394 21.8222C108.594 22.2056 107.902 22.7234 107.31 23.369C106.718 24.0146 106.254 24.761 105.924 25.6151C105.595 26.4692 105.427 27.3636 105.427 28.2983L105.42 28.2916Z" fill="white"/>
<path d="M128.708 12.9589C128.708 12.4007 128.971 12.125 129.489 12.125H140.49C141.688 12.125 142.804 12.3469 143.846 12.7975C144.889 13.2481 145.796 13.86 146.57 14.6267C147.343 15.3933 147.955 16.3012 148.399 17.3435C148.843 18.3859 149.065 19.4888 149.065 20.6657C149.065 21.4794 148.95 22.2662 148.729 23.0127C148.507 23.7591 148.191 24.4518 147.787 25.0907C147.384 25.7295 146.906 26.3079 146.348 26.819C145.79 27.3301 145.178 27.7672 144.499 28.1236L148.937 38.6817C148.964 38.8028 149.004 38.9171 149.065 39.0382C149.125 39.1592 149.152 39.2802 149.152 39.408C149.152 39.7644 148.944 39.9393 148.533 39.9393H144.418C143.994 39.9393 143.705 39.7174 143.564 39.2802L139.448 29.3072C139.26 29.3072 139.051 29.3072 138.836 29.3139C138.614 29.3139 138.318 29.3206 137.928 29.3206H134.014L133.84 39.1659C133.84 39.677 133.564 39.9326 133.026 39.9326H129.455C129.22 39.9326 129.031 39.872 128.883 39.7443C128.735 39.6165 128.668 39.4282 128.668 39.1659L128.715 12.9522L128.708 12.9589ZM143.806 20.6926C143.806 20.1882 143.712 19.6905 143.523 19.2131C143.335 18.7356 143.066 18.3052 142.723 17.9286C142.38 17.552 141.97 17.2427 141.499 17.0073C141.028 16.7719 140.511 16.6374 139.952 16.5971C139.536 16.5836 139.132 16.5769 138.735 16.5702C138.339 16.5702 137.928 16.5634 137.505 16.5634H134.008V24.8015H139.361C139.569 24.8015 139.791 24.788 140.026 24.7679C140.585 24.7342 141.096 24.5997 141.56 24.3778C142.03 24.1559 142.427 23.8533 142.757 23.4834C143.086 23.1135 143.349 22.6831 143.53 22.2057C143.712 21.7282 143.806 21.2238 143.806 20.6926Z" fill="white"/>
<path d="M33.7927 0.00672123H1.40551C1.40551 0.00672123 1.39206 0.00672123 1.38534 0.00672123C1.35844 0.00672123 1.33826 0.00672123 1.31136 0.00672123C1.29119 0.00672123 1.26429 0.00672123 1.24411 0.00672123C1.22394 0.00672123 1.20376 0.00672267 1.18359 0.0134476C1.15669 0.0134476 1.13651 0.0201754 1.10961 0.0269003C1.08944 0.0269003 1.06926 0.033623 1.05581 0.0403479C1.02891 0.0403479 1.00201 0.0537969 0.981838 0.0605219C0.961663 0.0605219 0.941493 0.0739709 0.928043 0.0806958C0.901143 0.0874207 0.880968 0.100871 0.854068 0.107596C0.833893 0.114321 0.813716 0.127772 0.793541 0.134496C0.773366 0.147946 0.753194 0.154673 0.733019 0.168123C0.712845 0.181573 0.692667 0.19502 0.672492 0.201745C0.652318 0.215195 0.632145 0.221921 0.611971 0.235371C0.591796 0.248821 0.578345 0.262269 0.55817 0.275719C0.537995 0.289169 0.517819 0.302619 0.504369 0.322794C0.490919 0.336243 0.470745 0.349697 0.457295 0.363147C0.43712 0.383321 0.416948 0.396767 0.396773 0.416942C0.396773 0.416942 0.390045 0.42367 0.38332 0.430395C0.376596 0.443845 0.36315 0.450566 0.356425 0.464016C0.336251 0.484191 0.322799 0.504368 0.302625 0.524543C0.289175 0.544718 0.275721 0.558169 0.262272 0.578344C0.248822 0.598519 0.235374 0.618691 0.221924 0.638866C0.208474 0.659041 0.195027 0.679218 0.188302 0.699393C0.174852 0.719568 0.168125 0.73974 0.154675 0.759915C0.141226 0.780089 0.1345 0.800267 0.127775 0.820442C0.12105 0.840616 0.1076 0.860789 0.100875 0.880963C0.09415 0.901138 0.0874244 0.921312 0.0739746 0.948212C0.0672496 0.968386 0.0605255 0.995285 0.0538006 1.01546C0.0538006 1.03563 0.0403516 1.06254 0.0336267 1.08271C0.0336267 1.10289 0.0201791 1.12979 0.0201791 1.14996C0.0201791 1.17686 0.0134513 1.19704 0.00672636 1.22394C0.00672636 1.24411 0.00672492 1.26428 0 1.29118C0 1.31808 0 1.34499 0 1.37189C0 1.38534 0 1.39878 0 1.41223V48.8633C0 49.6434 0.632143 50.2823 1.41896 50.2823H28.3657C32.1451 50.2823 35.2184 47.209 35.2184 43.4296V31.9232C35.2184 31.5264 35.0503 31.1498 34.7611 30.8809L28.554 25.1512L34.7544 19.509C35.0503 19.24 35.2184 18.8567 35.2184 18.4599V1.41896C35.2184 0.638868 34.5863 0 33.7995 0L33.7927 0.00672123ZM32.3738 10.1748H12.7034L4.963 2.84464H32.3738V10.1748ZM2.82447 4.72089L10.7195 12.2057V47.4578H2.82447V4.72089ZM25.4942 24.1021C25.1983 24.3711 25.0302 24.7477 25.0302 25.1445C25.0302 25.5413 25.1916 25.9246 25.4875 26.1936L32.3738 32.5486V43.4363C32.3738 45.6555 30.5715 47.4578 28.3523 47.4578H13.5574V13.0127H32.3738V17.8412L25.4942 24.1021Z" fill="#F7553D"/>
<path d="M55.0503 46.1196L53.5708 48.5272V50.3563H53.0328V48.5339L51.5533 46.1196H52.1585L53.3018 48.0833L54.4517 46.1196H55.057H55.0503Z" fill="white"/>
<path d="M56.1396 47.3772C56.2539 47.1149 56.4086 46.8863 56.6103 46.6845C56.8121 46.4895 57.0542 46.3348 57.3299 46.2272C57.6056 46.1129 57.9015 46.0591 58.2243 46.0591C58.5471 46.0591 58.8497 46.1129 59.1255 46.2272C59.4012 46.3348 59.6365 46.4895 59.8383 46.6845C60.04 46.8795 60.2014 47.1082 60.309 47.3772C60.4166 47.6462 60.4772 47.9286 60.4772 48.238C60.4772 48.5473 60.4234 48.8298 60.309 49.0988C60.1947 49.3677 60.04 49.5964 59.8383 49.7914C59.6365 49.9864 59.3945 50.1411 59.1255 50.2487C58.8565 50.3563 58.5538 50.4168 58.2243 50.4168C57.8948 50.4168 57.6056 50.363 57.3299 50.2487C57.0542 50.1411 56.8188 49.9864 56.6103 49.7914C56.4086 49.5964 56.2472 49.3677 56.1396 49.0988C56.0253 48.8298 55.9715 48.5473 55.9715 48.238C55.9715 47.9286 56.0253 47.6394 56.1396 47.3772ZM56.765 49.092C56.913 49.3409 57.108 49.5426 57.3635 49.6838C57.6191 49.825 57.9082 49.899 58.2243 49.899C58.5404 49.899 58.8363 49.825 59.0918 49.6838C59.3474 49.5426 59.5424 49.3409 59.6903 49.092C59.8383 48.8432 59.9123 48.5608 59.9123 48.238C59.9123 47.9152 59.8383 47.6327 59.6903 47.3839C59.5424 47.1351 59.3474 46.9333 59.0918 46.7921C58.8363 46.6509 58.5538 46.5769 58.2243 46.5769C57.8948 46.5769 57.6123 46.6509 57.3635 46.7921C57.1147 46.9333 56.913 47.1351 56.765 47.3839C56.6171 47.6327 56.5431 47.9219 56.5431 48.238C56.5431 48.554 56.6171 48.8432 56.765 49.092Z" fill="white"/>
<path d="M62.7033 46.1196V48.9643C62.7033 49.2534 62.784 49.4888 62.9521 49.6637C63.1203 49.8385 63.3556 49.9327 63.6784 49.9327C64.0012 49.9327 64.2366 49.8452 64.4047 49.6637C64.5728 49.4821 64.6535 49.2534 64.6535 48.9643V46.1196H65.1915V48.9643C65.1915 49.1727 65.1579 49.3678 65.0839 49.5426C65.01 49.7175 64.9158 49.8721 64.7813 49.9999C64.6468 50.1277 64.4854 50.2286 64.3038 50.3025C64.1155 50.3765 63.9071 50.4101 63.6784 50.4101C63.4498 50.4101 63.2413 50.3765 63.053 50.3025C62.8647 50.2286 62.71 50.1277 62.5755 49.9999C62.441 49.8721 62.3402 49.7175 62.2729 49.5426C62.2057 49.3678 62.1653 49.1727 62.1653 48.9643V46.1196H62.7033Z" fill="white"/>
<path d="M67.6596 46.1196V50.3563H67.1216V46.1196H67.6596ZM67.4175 46.1196H68.3254C68.6145 46.1196 68.8701 46.1734 69.0987 46.2743C69.3274 46.3752 69.5022 46.5231 69.6367 46.7114C69.7712 46.8997 69.8385 47.1284 69.8385 47.3906C69.8385 47.6529 69.7712 47.8748 69.6367 48.0631C69.5022 48.2582 69.3206 48.3994 69.0987 48.507C68.8701 48.6079 68.6145 48.6616 68.3254 48.6616H67.4175V48.2043H68.3254C68.5136 48.2043 68.6818 48.1707 68.8297 48.1102C68.9777 48.043 69.092 47.9555 69.1727 47.8345C69.2534 47.7134 69.2937 47.5655 69.2937 47.3906C69.2937 47.2158 69.2534 47.0678 69.1727 46.9468C69.092 46.8257 68.9777 46.7316 68.8297 46.6711C68.6818 46.6105 68.5136 46.5769 68.3254 46.5769H67.4175V46.1196ZM68.5136 48.2649L70.1007 50.3496H69.435L67.9084 48.2649H68.5136Z" fill="white"/>
<path d="M75.03 46.1196V50.3563H74.492V46.1196H75.03ZM74.7879 47.8143H77.8343V48.2985H74.7879V47.8143ZM78.0158 46.1196V50.3563H77.4778V46.1196H78.0158Z" fill="white"/>
<path d="M79.8921 47.3772C80.0064 47.1149 80.1611 46.8863 80.3629 46.6845C80.5646 46.4895 80.8067 46.3348 81.0824 46.2272C81.3581 46.1129 81.654 46.0591 81.9768 46.0591C82.2996 46.0591 82.6023 46.1129 82.878 46.2272C83.1537 46.3348 83.3891 46.4895 83.5908 46.6845C83.7926 46.8795 83.954 47.1082 84.0616 47.3772C84.1692 47.6462 84.2297 47.9286 84.2297 48.238C84.2297 48.5473 84.1759 48.8298 84.0616 49.0988C83.9472 49.3677 83.7926 49.5964 83.5908 49.7914C83.3891 49.9864 83.147 50.1411 82.878 50.2487C82.609 50.3563 82.3064 50.4168 81.9768 50.4168C81.6473 50.4168 81.3581 50.363 81.0824 50.2487C80.8067 50.1411 80.5713 49.9864 80.3629 49.7914C80.1611 49.5964 79.9997 49.3677 79.8921 49.0988C79.7778 48.8298 79.724 48.5473 79.724 48.238C79.724 47.9286 79.7778 47.6394 79.8921 47.3772ZM80.5175 49.092C80.6655 49.3409 80.8605 49.5426 81.116 49.6838C81.3716 49.825 81.6608 49.899 81.9768 49.899C82.2929 49.899 82.5888 49.825 82.8444 49.6838C83.0999 49.5426 83.2949 49.3409 83.4429 49.092C83.5908 48.8432 83.6648 48.5608 83.6648 48.238C83.6648 47.9152 83.5908 47.6327 83.4429 47.3839C83.2949 47.1351 83.0999 46.9333 82.8444 46.7921C82.5888 46.6509 82.3064 46.5769 81.9768 46.5769C81.6473 46.5769 81.3649 46.6509 81.116 46.7921C80.8672 46.9333 80.6655 47.1351 80.5175 47.3839C80.3696 47.6327 80.2956 47.9219 80.2956 48.238C80.2956 48.554 80.3696 48.8432 80.5175 49.092Z" fill="white"/>
<path d="M86.4557 46.1196V48.9643C86.4557 49.2534 86.5363 49.4888 86.7045 49.6637C86.8726 49.8385 87.108 49.9327 87.4308 49.9327C87.7536 49.9327 87.9889 49.8452 88.1571 49.6637C88.3252 49.4821 88.4059 49.2534 88.4059 48.9643V46.1196H88.9439V48.9643C88.9439 49.1727 88.9102 49.3678 88.8363 49.5426C88.7623 49.7175 88.6681 49.8721 88.5337 49.9999C88.3992 50.1277 88.2378 50.2286 88.0562 50.3025C87.8679 50.3765 87.6594 50.4101 87.4308 50.4101C87.2021 50.4101 86.9936 50.3765 86.8054 50.3025C86.6171 50.2286 86.4624 50.1277 86.3279 49.9999C86.1934 49.8721 86.0925 49.7175 86.0253 49.5426C85.958 49.3678 85.9177 49.1727 85.9177 48.9643V46.1196H86.4557Z" fill="white"/>
<path d="M91.3581 49.5224C91.4724 49.6502 91.5935 49.7511 91.7347 49.825C91.8759 49.899 92.0306 49.9326 92.2122 49.9326C92.4475 49.9326 92.6426 49.8721 92.7838 49.7443C92.925 49.6166 92.999 49.4619 92.999 49.2669C92.999 49.0719 92.9519 48.9239 92.8578 48.8096C92.7636 48.6953 92.6426 48.6078 92.4946 48.5339C92.3467 48.4599 92.1853 48.3994 92.0172 48.3456C91.9096 48.3119 91.7818 48.2649 91.6473 48.2043C91.5128 48.1438 91.385 48.0698 91.2572 47.9824C91.1362 47.8883 91.0353 47.7807 90.9546 47.6462C90.8739 47.5117 90.8403 47.3503 90.8403 47.1552C90.8403 46.9468 90.8941 46.7585 91.0084 46.5904C91.116 46.4222 91.2707 46.2945 91.4657 46.2003C91.6607 46.1062 91.8827 46.0591 92.1315 46.0591C92.3803 46.0591 92.5821 46.0994 92.7636 46.1869C92.9452 46.2743 93.0999 46.3819 93.2209 46.5164C93.3487 46.6509 93.4496 46.7921 93.5168 46.9401L93.0528 47.1956C92.999 47.088 92.925 46.9871 92.8443 46.8863C92.7569 46.7854 92.656 46.7047 92.535 46.6374C92.4139 46.5702 92.266 46.5433 92.0911 46.5433C91.849 46.5433 91.6742 46.5971 91.5666 46.7114C91.459 46.8257 91.3985 46.9468 91.3985 47.0813C91.3985 47.1956 91.4321 47.3032 91.4926 47.4041C91.5531 47.5049 91.6607 47.5924 91.8154 47.6798C91.9634 47.7672 92.1718 47.8546 92.4274 47.9353C92.5484 47.9757 92.6695 48.0295 92.804 48.09C92.9385 48.1573 93.0595 48.238 93.1671 48.3321C93.2814 48.433 93.3689 48.5473 93.4428 48.6885C93.5168 48.8298 93.5504 48.9912 93.5504 49.1862C93.5504 49.3812 93.5101 49.5426 93.4361 49.6905C93.3621 49.8385 93.2613 49.9663 93.1335 50.0739C93.0057 50.1815 92.8578 50.2622 92.6964 50.316C92.535 50.3698 92.3601 50.4034 92.1853 50.4034C91.9432 50.4034 91.7213 50.3563 91.5128 50.2554C91.3043 50.1546 91.1295 50.0268 90.9748 49.8587C90.8201 49.6973 90.6923 49.5224 90.5982 49.3341L91.0286 49.0584C91.1295 49.2265 91.2371 49.3745 91.3514 49.509L91.3581 49.5224Z" fill="white"/>
<path d="M95.8503 46.1196V50.3563H95.3123V46.1196H95.8503Z" fill="white"/>
<path d="M101.721 46.1197V50.5716L98.3587 47.2092V50.3631H97.8208V45.918L101.183 49.2804V46.1264H101.721V46.1197Z" fill="white"/>
<path d="M105.749 48.2045H107.814C107.814 48.5004 107.767 48.7761 107.673 49.0451C107.579 49.3141 107.444 49.5427 107.263 49.7512C107.081 49.9597 106.859 50.1211 106.59 50.2354C106.328 50.3564 106.025 50.417 105.682 50.417C105.339 50.417 105.063 50.3632 104.788 50.2556C104.512 50.148 104.277 50 104.068 49.805C103.866 49.61 103.705 49.3813 103.597 49.1123C103.49 48.8433 103.429 48.5542 103.429 48.2381C103.429 47.922 103.483 47.6328 103.597 47.3638C103.712 47.0949 103.866 46.8662 104.068 46.6712C104.27 46.4762 104.512 46.3215 104.788 46.2139C105.063 46.1063 105.359 46.0525 105.682 46.0525C105.958 46.0525 106.213 46.0861 106.442 46.1534C106.671 46.2206 106.879 46.3215 107.068 46.456C107.249 46.5905 107.41 46.7519 107.532 46.9536L107.148 47.2899C107.007 47.0612 106.812 46.8864 106.563 46.7586C106.314 46.6308 106.018 46.5703 105.682 46.5703C105.366 46.5703 105.084 46.6443 104.828 46.7788C104.573 46.92 104.371 47.115 104.223 47.3638C104.075 47.6127 103.994 47.9018 103.994 48.2314C103.994 48.5609 104.068 48.8501 104.223 49.0989C104.371 49.3477 104.573 49.5427 104.828 49.684C105.084 49.8252 105.366 49.8991 105.682 49.8991C105.904 49.8991 106.099 49.8655 106.274 49.805C106.449 49.7445 106.604 49.6571 106.731 49.5427C106.859 49.4284 106.96 49.3006 107.047 49.1527C107.128 49.0047 107.189 48.8501 107.229 48.6887H105.749V48.2045Z" fill="white"/>
<path d="M112.905 49.5224C113.019 49.6502 113.14 49.7511 113.281 49.825C113.423 49.899 113.577 49.9326 113.759 49.9326C113.994 49.9326 114.189 49.8721 114.33 49.7443C114.472 49.6166 114.546 49.4619 114.546 49.2669C114.546 49.0719 114.499 48.9239 114.404 48.8096C114.31 48.6953 114.189 48.6078 114.041 48.5339C113.893 48.4599 113.732 48.3994 113.564 48.3456C113.456 48.3119 113.328 48.2649 113.194 48.2043C113.059 48.1438 112.932 48.0698 112.804 47.9824C112.683 47.8883 112.582 47.7807 112.501 47.6462C112.421 47.5117 112.387 47.3503 112.387 47.1552C112.387 46.9468 112.441 46.7585 112.555 46.5904C112.663 46.4222 112.817 46.2945 113.012 46.2003C113.207 46.1062 113.429 46.0591 113.678 46.0591C113.927 46.0591 114.129 46.0994 114.31 46.1869C114.492 46.2743 114.646 46.3819 114.768 46.5164C114.895 46.6509 114.996 46.7921 115.063 46.9401L114.599 47.1956C114.546 47.088 114.472 46.9871 114.391 46.8863C114.303 46.7854 114.203 46.7047 114.082 46.6374C113.961 46.5702 113.813 46.5433 113.638 46.5433C113.396 46.5433 113.221 46.5971 113.113 46.7114C113.006 46.8257 112.945 46.9468 112.945 47.0813C112.945 47.1956 112.979 47.3032 113.039 47.4041C113.1 47.5049 113.207 47.5924 113.362 47.6798C113.51 47.7672 113.718 47.8546 113.974 47.9353C114.095 47.9757 114.216 48.0295 114.351 48.09C114.485 48.1573 114.606 48.238 114.714 48.3321C114.828 48.433 114.915 48.5473 114.989 48.6885C115.063 48.8298 115.097 48.9912 115.097 49.1862C115.097 49.3812 115.057 49.5426 114.983 49.6905C114.909 49.8385 114.808 49.9663 114.68 50.0739C114.552 50.1815 114.404 50.2622 114.243 50.316C114.082 50.3698 113.907 50.4034 113.732 50.4034C113.49 50.4034 113.268 50.3563 113.059 50.2554C112.851 50.1546 112.676 50.0268 112.521 49.8587C112.367 49.6973 112.239 49.5224 112.145 49.3341L112.575 49.0584C112.676 49.2265 112.784 49.3745 112.898 49.509L112.905 49.5224Z" fill="white"/>
<path d="M117.39 46.1196V50.3563H116.852V46.1196H117.39ZM117.148 47.8143H120.195V48.2985H117.148V47.8143ZM120.376 46.1196V50.3563H119.838V46.1196H120.376Z" fill="white"/>
<path d="M122.259 47.3772C122.373 47.1149 122.528 46.8863 122.73 46.6845C122.932 46.4895 123.174 46.3348 123.449 46.2272C123.725 46.1129 124.021 46.0591 124.344 46.0591C124.667 46.0591 124.969 46.1129 125.245 46.2272C125.521 46.3348 125.756 46.4895 125.958 46.6845C126.16 46.8795 126.321 47.1082 126.429 47.3772C126.536 47.6462 126.597 47.9286 126.597 48.238C126.597 48.5473 126.543 48.8298 126.429 49.0988C126.314 49.3677 126.16 49.5964 125.958 49.7914C125.756 49.9864 125.514 50.1411 125.245 50.2487C124.976 50.3563 124.673 50.4168 124.344 50.4168C124.014 50.4168 123.725 50.363 123.449 50.2487C123.174 50.1411 122.938 49.9864 122.73 49.7914C122.528 49.5964 122.367 49.3677 122.259 49.0988C122.145 48.8298 122.091 48.5473 122.091 48.238C122.091 47.9286 122.145 47.6394 122.259 47.3772ZM122.884 49.092C123.032 49.3409 123.227 49.5426 123.483 49.6838C123.739 49.825 124.028 49.899 124.344 49.899C124.66 49.899 124.956 49.825 125.211 49.6838C125.467 49.5426 125.662 49.3409 125.81 49.092C125.958 48.8432 126.032 48.5608 126.032 48.238C126.032 47.9152 125.958 47.6327 125.81 47.3839C125.662 47.1351 125.467 46.9333 125.211 46.7921C124.956 46.6509 124.673 46.5769 124.344 46.5769C124.014 46.5769 123.732 46.6509 123.483 46.7921C123.234 46.9333 123.032 47.1351 122.884 47.3839C122.737 47.6327 122.663 47.9219 122.663 48.238C122.663 48.554 122.737 48.8432 122.884 49.092Z" fill="white"/>
<path d="M128.85 46.1196V50.3563H128.312V46.1196H128.85ZM128.607 46.1196H129.515C129.804 46.1196 130.06 46.1734 130.289 46.2743C130.517 46.3752 130.692 46.5231 130.827 46.7114C130.961 46.8997 131.028 47.1284 131.028 47.3906C131.028 47.6529 130.961 47.8748 130.827 48.0631C130.692 48.2582 130.511 48.3994 130.289 48.507C130.06 48.6079 129.804 48.6616 129.515 48.6616H128.607V48.2043H129.515C129.704 48.2043 129.872 48.1707 130.02 48.1102C130.168 48.043 130.282 47.9555 130.363 47.8345C130.443 47.7134 130.484 47.5655 130.484 47.3906C130.484 47.2158 130.443 47.0678 130.363 46.9468C130.282 46.8257 130.168 46.7316 130.02 46.6711C129.872 46.6105 129.704 46.5769 129.515 46.5769H128.607V46.1196ZM129.704 48.2649L131.291 50.3496H130.625L129.098 48.2649H129.704Z" fill="white"/>
<path d="M132.373 46.1196H135.198V46.6038H134.055V50.3563H133.517V46.6038H132.373V46.1196Z" fill="white"/>
<path d="M136.96 49.0988C137.114 49.3476 137.316 49.5426 137.565 49.6838C137.814 49.8251 138.083 49.899 138.379 49.899C138.587 49.899 138.782 49.8721 138.957 49.8183C139.132 49.7645 139.293 49.6906 139.435 49.5964C139.576 49.5023 139.704 49.3947 139.804 49.2669V49.9461C139.616 50.1008 139.414 50.2218 139.192 50.2958C138.971 50.3698 138.702 50.4101 138.372 50.4101C138.063 50.4101 137.774 50.3563 137.505 50.2487C137.236 50.1411 137 49.9932 136.798 49.7982C136.597 49.6031 136.435 49.3745 136.321 49.1055C136.207 48.8365 136.153 48.5473 136.153 48.2313C136.153 47.9152 136.213 47.626 136.321 47.357C136.435 47.088 136.597 46.8594 136.798 46.6643C137 46.4693 137.236 46.3146 137.505 46.207C137.774 46.0994 138.063 46.0457 138.372 46.0457C138.695 46.0457 138.971 46.086 139.192 46.16C139.414 46.234 139.616 46.355 139.804 46.5097V47.1889C139.704 47.0611 139.583 46.9535 139.435 46.8594C139.293 46.7652 139.132 46.6912 138.957 46.6374C138.782 46.5836 138.587 46.5567 138.379 46.5567C138.09 46.5567 137.814 46.6307 137.565 46.7652C137.316 46.9064 137.114 47.1015 136.96 47.3503C136.805 47.5991 136.731 47.8883 136.731 48.2178C136.731 48.5473 136.805 48.8365 136.96 49.0853V49.0988Z" fill="white"/>
<path d="M142.219 46.1196V48.9643C142.219 49.2534 142.3 49.4888 142.468 49.6637C142.636 49.8385 142.871 49.9327 143.194 49.9327C143.517 49.9327 143.752 49.8452 143.92 49.6637C144.088 49.4821 144.169 49.2534 144.169 48.9643V46.1196H144.707V48.9643C144.707 49.1727 144.673 49.3678 144.599 49.5426C144.525 49.7175 144.431 49.8721 144.297 49.9999C144.162 50.1277 144.001 50.2286 143.819 50.3025C143.631 50.3765 143.423 50.4101 143.194 50.4101C142.965 50.4101 142.757 50.3765 142.568 50.3025C142.38 50.2286 142.226 50.1277 142.091 49.9999C141.957 49.8721 141.856 49.7175 141.788 49.5426C141.721 49.3678 141.681 49.1727 141.681 48.9643V46.1196H142.219Z" fill="white"/>
<path d="M146.193 46.1196H149.018V46.6038H147.874V50.3563H147.336V46.6038H146.193V46.1196Z" fill="white"/>
</svg>
