<svg width="22" height="22" viewBox="0 0 22 22" fill="none" xmlns="http://www.w3.org/2000/svg">
<path d="M10.7921 7.29019C8.82232 7.29019 7.21486 8.9292 7.21486 10.9376C7.21486 12.946 8.82232 14.585 10.7921 14.585C12.7618 14.585 14.3693 12.946 14.3693 10.9376C14.3693 8.9292 12.7618 7.29019 10.7921 7.29019ZM21.521 10.9376C21.521 9.4272 21.5345 7.93047 21.4513 6.4228C21.3681 4.6716 20.9763 3.11741 19.7204 1.83684C18.4618 0.553537 16.9402 0.15678 15.2227 0.0719564C13.7413 -0.0128674 12.2734 0.000813882 10.7948 0.000813882C9.31342 0.000813882 7.8455 -0.0128674 6.36685 0.0719564C4.64935 0.15678 3.12508 0.556273 1.86916 1.83684C0.610562 3.12014 0.221443 4.6716 0.138252 6.4228C0.0550606 7.93321 0.0684786 9.42994 0.0684786 10.9376C0.0684786 12.4453 0.0550606 13.9448 0.138252 15.4524C0.221443 17.2036 0.613246 18.7578 1.86916 20.0384C3.12776 21.3217 4.64935 21.7184 6.36685 21.8033C7.84818 21.8881 9.3161 21.8744 10.7948 21.8744C12.2761 21.8744 13.744 21.8881 15.2227 21.8033C16.9402 21.7184 18.4644 21.319 19.7204 20.0384C20.979 18.7551 21.3681 17.2036 21.4513 15.4524C21.5371 13.9448 21.521 12.448 21.521 10.9376ZM10.7921 16.5497C7.74621 16.5497 5.28805 14.0433 5.28805 10.9376C5.28805 7.83197 7.74621 5.32556 10.7921 5.32556C13.8379 5.32556 16.2961 7.83197 16.2961 10.9376C16.2961 14.0433 13.8379 16.5497 10.7921 16.5497ZM16.5215 6.40638C15.8104 6.40638 15.2361 5.82082 15.2361 5.09572C15.2361 4.37061 15.8104 3.78505 16.5215 3.78505C17.2327 3.78505 17.807 4.37061 17.807 5.09572C17.8072 5.2679 17.7741 5.43843 17.7095 5.59754C17.645 5.75666 17.5503 5.90123 17.4309 6.02298C17.3115 6.14473 17.1697 6.24126 17.0137 6.30705C16.8576 6.37284 16.6904 6.4066 16.5215 6.40638Z" fill="#F7553D"/>
</svg>
