<svg width="22" height="22" viewBox="0 0 22 22" fill="none" xmlns="http://www.w3.org/2000/svg">
<g clip-path="url(#clip0_0_356)">
<path d="M11.106 0.210205C5.18145 0.210205 0.378754 5.0129 0.378754 10.9375C0.378754 16.8621 5.18145 21.6648 11.106 21.6648C17.0306 21.6648 21.8333 16.8621 21.8333 10.9375C21.8333 5.0129 17.0306 0.210205 11.106 0.210205ZM8.48008 15.3837H6.30781V8.39311H8.48008V15.3837ZM7.38054 7.53492C6.69444 7.53492 6.25082 7.04884 6.25082 6.44767C6.25082 5.8342 6.70785 5.36265 7.40847 5.36265C8.1091 5.36265 8.53819 5.8342 8.5516 6.44767C8.5516 7.04884 8.1091 7.53492 7.38054 7.53492ZM16.4138 15.3837H14.2415V11.5096C14.2415 10.6078 13.9264 9.99549 13.1409 9.99549C12.5408 9.99549 12.1843 10.4101 12.0268 10.809C11.9687 10.9509 11.9542 11.152 11.9542 11.352V15.3826H9.78076V10.6224C9.78076 9.74966 9.75283 9.01998 9.72378 8.39199H11.6111L11.7106 9.36303H11.7541C12.0402 8.90712 12.7408 8.23443 13.913 8.23443C15.3422 8.23443 16.4138 9.19206 16.4138 11.2504V15.3837Z" fill="#F7553D"/>
</g>
<defs>
<clipPath id="clip0_0_356">
<rect width="21.4546" height="21.4546" fill="white" transform="translate(0.378754 0.210205)"/>
</clipPath>
</defs>
</svg>
