<svg width="21" height="29" viewBox="0 0 21 29" fill="none" xmlns="http://www.w3.org/2000/svg">
<path d="M19.4319 0H0.813358C0.813358 0 0.805648 0 0.801793 0C0.786374 0 0.77481 0 0.759391 0C0.747827 0 0.732407 0 0.720843 0C0.709279 0 0.697714 0 0.68615 0.00386873C0.670731 0.00386873 0.659167 0.00773746 0.643748 0.0116062C0.632183 0.0116062 0.620619 0.0154749 0.612909 0.0193436C0.59749 0.0193436 0.582071 0.0270811 0.566652 0.0309498C0.555088 0.0309498 0.543523 0.0386873 0.535814 0.042556C0.520395 0.0464248 0.50883 0.0541622 0.493411 0.058031C0.481847 0.0618997 0.470283 0.0696371 0.458718 0.0735059C0.447154 0.0812433 0.43559 0.0851121 0.424025 0.0928495C0.412461 0.100587 0.400897 0.108324 0.389332 0.112193C0.377768 0.119931 0.366204 0.123799 0.354639 0.131537C0.343075 0.139274 0.335366 0.147012 0.323801 0.154749C0.312237 0.162487 0.300673 0.170224 0.289108 0.18183C0.281399 0.189568 0.269834 0.197305 0.262125 0.205043C0.25056 0.216649 0.238996 0.224386 0.227432 0.235993C0.227432 0.235993 0.223577 0.239861 0.219722 0.24373C0.215867 0.251467 0.208158 0.255336 0.204303 0.263074C0.192739 0.27468 0.185029 0.286286 0.173465 0.297892C0.165755 0.309498 0.158046 0.317236 0.150336 0.328842C0.142627 0.340448 0.134917 0.352054 0.127208 0.363661C0.119498 0.375267 0.111788 0.386873 0.107934 0.398479C0.100224 0.410085 0.0963694 0.421692 0.0886598 0.433298C0.0809503 0.444904 0.0770955 0.45651 0.0732407 0.468116C0.069386 0.479723 0.0616764 0.491329 0.0578216 0.502935C0.0539669 0.514541 0.0501121 0.526147 0.0424025 0.541622C0.0385478 0.553228 0.034693 0.568703 0.0308382 0.58031C0.0308382 0.591916 0.0231287 0.607391 0.0192739 0.618997C0.0192739 0.630603 0.0115643 0.646078 0.0115643 0.657684C0.0115643 0.673159 0.00770955 0.684765 0.00385478 0.70024C0.00385478 0.711846 0.00385478 0.723453 0 0.738927C0 0.754402 0 0.769877 0 0.785352C0 0.79309 0 0.800827 0 0.808565V28.1837C0 28.6363 0.366204 29 0.813358 29H16.3057C18.4798 29 20.2453 27.2243 20.2453 25.0462V18.4074C20.2453 18.1792 20.1489 17.9625 19.9832 17.8078L16.4136 14.5L19.9793 11.2425C20.1489 11.0878 20.2453 10.8673 20.2453 10.639V0.816302C20.2453 0.363661 19.8791 0 19.4319 0ZM18.6186 5.86499H7.30866L2.86024 1.63647H18.6186V5.86886V5.86499ZM1.63057 2.71972L6.1715 7.03722V27.379H1.63057V2.71972ZM14.6636 13.9042C14.494 14.059 14.3976 14.2756 14.3976 14.5077C14.3976 14.736 14.4901 14.9565 14.6597 15.1113L18.6186 18.7788V25.0616C18.6186 26.3422 17.5816 27.3829 16.3057 27.3829H7.79821V7.50147H18.6186V10.287L14.6636 13.9003V13.9042Z" fill="white"/>
</svg>
