<svg width="142" height="48" viewBox="0 0 142 48" fill="none" xmlns="http://www.w3.org/2000/svg">
<g clip-path="url(#clip0_6_1002)">
<path d="M49.0896 12.3418C49.0896 11.7863 49.3457 11.5054 49.8514 11.5054H60.4209C61.4004 11.5054 62.3223 11.6969 63.1801 12.0864C64.0444 12.4695 64.787 12.9994 65.4272 13.657C66.061 14.321 66.5667 15.1063 66.9316 16.0066C67.2965 16.9068 67.4822 17.8773 67.4822 18.9244C67.4822 19.8821 67.3157 20.7823 66.9892 21.6123C66.6627 22.4423 66.2146 23.1702 65.6384 23.8023C66.0994 24.1598 66.5155 24.5684 66.8868 25.0281C67.2581 25.4878 67.5782 25.9858 67.8471 26.5221C68.116 27.0584 68.3272 27.6203 68.4745 28.2205C68.6217 28.8206 68.6985 29.4335 68.6985 30.0592C68.6985 31.1127 68.5129 32.1151 68.1352 33.0664C67.7575 34.0177 67.2453 34.8478 66.5987 35.5756C65.9521 36.2971 65.1903 36.8717 64.3069 37.2931C63.4298 37.7145 62.4887 37.9252 61.4836 37.9252H49.8578C49.6338 37.9252 49.4481 37.8613 49.3073 37.74C49.1664 37.6187 49.096 37.4208 49.096 37.159V12.3418H49.0896ZM62.5912 19.0074C62.5912 18.5541 62.5143 18.1327 62.3607 17.7432C62.207 17.3537 61.9958 17.0153 61.7269 16.728C61.458 16.4407 61.1315 16.2236 60.7538 16.064C60.3761 15.9044 59.96 15.8214 59.5119 15.8214H53.9742V22.2572H59.4606C59.9152 22.2572 60.3313 22.1742 60.7154 22.0082C61.0995 21.8422 61.426 21.6123 61.7077 21.325C61.983 21.0377 62.2006 20.6929 62.3607 20.2907C62.5207 19.8948 62.5976 19.4607 62.5976 19.001L62.5912 19.0074ZM63.6923 29.906C63.6923 29.5038 63.6219 29.1079 63.4874 28.7248C63.353 28.3418 63.1673 27.9906 62.9305 27.6841C62.6936 27.3777 62.4119 27.1159 62.0854 26.9116C61.7589 26.7073 61.4004 26.5668 61.0163 26.4966C60.7922 26.4583 60.5618 26.4264 60.3313 26.4008C60.1008 26.3689 59.864 26.3561 59.6271 26.3561H53.9742V33.5772H59.6271C59.864 33.5772 60.0944 33.5708 60.3185 33.5517C60.5426 33.5325 60.773 33.5006 60.9971 33.4559C61.3812 33.3984 61.7333 33.258 62.0662 33.0473C62.3927 32.8366 62.6808 32.5684 62.9241 32.2492C63.1673 31.93 63.353 31.5724 63.4938 31.1766C63.6283 30.7807 63.6987 30.3593 63.6987 29.9252L63.6923 29.906Z" fill="white"/>
<path d="M89.6518 35.2756C88.6595 36.1439 87.5776 36.8271 86.3997 37.3187C85.2217 37.8167 83.9285 38.0657 82.5201 38.0657C80.9965 38.0657 79.5561 37.772 78.1925 37.1846C76.8289 36.5972 75.6317 35.7864 74.6074 34.7584C73.5831 33.7305 72.7701 32.5238 72.1683 31.1447C71.5665 29.7656 71.2656 28.278 71.2656 26.6818C71.2656 25.6539 71.3873 25.1048 71.6369 24.1471C71.8866 23.1894 72.2387 22.2892 72.6932 21.4528C73.1478 20.6164 73.7047 19.8438 74.3577 19.1479C75.0107 18.4456 75.7405 17.8518 76.5472 17.3538C77.3538 16.8558 78.2245 16.4727 79.1655 16.1982C80.1066 15.9236 81.0989 15.7896 82.1488 15.7896C83.0067 15.7896 83.8517 15.8981 84.684 16.1088C85.5162 16.3195 86.31 16.6259 87.0591 17.0218C87.8081 17.4176 88.5123 17.8901 89.1653 18.452C89.8183 19.0138 90.3944 19.6459 90.8874 20.3482C91.566 21.3187 92.0589 22.3658 92.3726 23.4895C92.6863 24.6132 92.8463 25.4049 92.8463 26.7712C92.8463 27.1096 92.8335 27.3841 92.8015 27.614C92.7759 27.8374 92.7055 28.0226 92.5903 28.1631C92.475 28.3035 92.3086 28.4057 92.0845 28.4695C91.8605 28.5334 91.5468 28.5653 91.137 28.5653H76.1439C76.2911 29.3953 76.5664 30.1359 76.9825 30.7744C77.3922 31.4129 77.8788 31.9619 78.4421 32.4025C79.0055 32.8494 79.6201 33.1814 80.2859 33.4113C80.9517 33.6347 81.6175 33.7496 82.2833 33.7496C82.789 33.7496 83.2755 33.6986 83.7429 33.5964C84.2102 33.4943 84.6455 33.3538 85.0553 33.1814C85.4586 33.009 85.8363 32.8111 86.182 32.5812C86.5277 32.3578 86.8286 32.1216 87.0847 31.8789C87.0847 31.8662 87.0847 31.8598 87.1039 31.8598C87.2383 31.7321 87.3663 31.6299 87.4944 31.5533C87.616 31.4767 87.7505 31.4384 87.8849 31.4384C87.9873 31.4384 88.1026 31.4703 88.2306 31.5405C88.3586 31.6108 88.4867 31.7257 88.6083 31.8853C88.9156 32.2684 89.1717 32.5876 89.3829 32.8366C89.5942 33.092 89.7734 33.3027 89.9079 33.4751C90.0423 33.6475 90.1448 33.8007 90.2024 33.9284C90.2664 34.0561 90.292 34.1838 90.292 34.3115C90.292 34.6371 90.0807 34.9564 89.6518 35.282V35.2756ZM82.1488 20.0864C81.483 20.0864 80.8364 20.2077 80.2026 20.4568C79.5689 20.7058 78.9927 21.0441 78.4677 21.4719C77.9428 21.8997 77.4882 22.4041 77.0977 22.9787C76.7072 23.5597 76.4255 24.179 76.2463 24.8494H88.2114C88.0321 24.1471 87.7569 23.5022 87.3919 22.9148C87.027 22.3338 86.5853 21.8295 86.0668 21.4081C85.5482 20.9867 84.9592 20.6611 84.2934 20.4312C83.6276 20.2014 82.9106 20.0864 82.1488 20.0864Z" fill="white"/>
<path d="M112.929 35.0776C112.532 35.4735 112.097 35.8438 111.617 36.1886C111.137 36.5397 110.624 36.8398 110.08 37.0888C109.536 37.3442 108.954 37.5421 108.339 37.689C107.724 37.8358 107.084 37.906 106.418 37.906C104.895 37.906 103.48 37.6187 102.168 37.0377C100.855 36.4567 99.7092 35.6714 98.7361 34.669C97.763 33.6666 96.9948 32.4982 96.4442 31.1574C95.8937 29.8167 95.6184 28.3801 95.6184 26.8478C95.6184 25.3155 95.8937 23.8661 96.4442 22.5254C96.9948 21.1846 97.7566 20.0098 98.7361 19.0138C99.7092 18.0114 100.855 17.2261 102.168 16.6451C103.48 16.0641 104.895 15.7768 106.418 15.7768C107.795 15.7768 109.005 16.0194 110.055 16.511C111.105 17.0026 112.033 17.6666 112.846 18.5094V12.5142C112.846 12.2205 112.935 11.9779 113.115 11.7863C113.294 11.5948 113.556 11.499 113.889 11.499H116.661C116.917 11.499 117.161 11.5884 117.391 11.7799C117.615 11.9651 117.73 12.2077 117.73 12.5142V36.8973C117.73 37.574 117.372 37.906 116.649 37.906H114.113C113.774 37.906 113.544 37.823 113.422 37.6507C113.384 37.5932 113.339 37.5294 113.3 37.4527C113.153 37.1718 113.083 36.859 113.051 36.5461L112.929 35.0712V35.0776ZM100.369 26.8542C100.369 27.7544 100.529 28.6036 100.842 29.408C101.156 30.2125 101.598 30.9084 102.161 31.5086C102.724 32.1024 103.384 32.5748 104.146 32.926C104.908 33.2772 105.74 33.4495 106.636 33.4495C107.532 33.4495 108.365 33.2772 109.152 32.9324C109.939 32.5876 110.631 32.1215 111.213 31.5341C111.796 30.9467 112.263 30.2572 112.609 29.4783C112.955 28.6993 113.134 27.8629 113.16 26.9755V26.8606C113.16 25.9731 112.993 25.1239 112.654 24.3131C112.314 23.5022 111.854 22.7935 111.271 22.1806C110.682 21.5677 109.997 21.0824 109.203 20.7121C108.409 20.3482 107.558 20.163 106.642 20.163C105.727 20.163 104.908 20.3482 104.152 20.7121C103.39 21.076 102.731 21.5677 102.168 22.1806C101.604 22.7935 101.162 23.5022 100.849 24.3131C100.535 25.1239 100.375 25.9731 100.375 26.8606L100.369 26.8542Z" fill="white"/>
<path d="M122.532 12.2971C122.532 11.7671 122.781 11.5054 123.274 11.5054H133.748C134.887 11.5054 135.95 11.7161 136.942 12.1438C137.935 12.5716 138.799 13.1526 139.535 13.8805C140.271 14.6083 140.854 15.4703 141.277 16.4599C141.699 17.4495 141.91 18.4966 141.91 19.6139C141.91 20.3865 141.801 21.1335 141.59 21.8422C141.379 22.5509 141.078 23.2085 140.694 23.815C140.31 24.4216 139.855 24.9707 139.324 25.4559C138.793 25.9411 138.21 26.3561 137.563 26.6945L141.789 36.7185C141.814 36.8334 141.853 36.9419 141.91 37.0568C141.968 37.1718 141.994 37.2867 141.994 37.408C141.994 37.7464 141.795 37.9124 141.405 37.9124H137.487C137.083 37.9124 136.808 37.7017 136.674 37.2867L132.756 27.8182C132.576 27.8182 132.378 27.8182 132.173 27.8246C131.962 27.8246 131.68 27.831 131.309 27.831H127.583L127.416 37.1782C127.416 37.6634 127.154 37.906 126.642 37.906H123.242C123.018 37.906 122.839 37.8485 122.698 37.7272C122.557 37.6059 122.493 37.4272 122.493 37.1782L122.538 12.2907L122.532 12.2971ZM136.904 19.6394C136.904 19.1606 136.814 18.6881 136.635 18.2348C136.456 17.7815 136.2 17.3729 135.873 17.0153C135.547 16.6578 135.156 16.3641 134.708 16.1406C134.26 15.9172 133.767 15.7895 133.236 15.7512C132.839 15.7384 132.455 15.732 132.077 15.7256C131.699 15.7256 131.309 15.7193 130.905 15.7193H127.576V23.5405H132.672C132.871 23.5405 133.082 23.5277 133.306 23.5086C133.838 23.4766 134.324 23.3489 134.766 23.1383C135.214 22.9276 135.592 22.6402 135.905 22.2891C136.219 21.9379 136.469 21.5293 136.642 21.076C136.814 20.6227 136.904 20.1438 136.904 19.6394Z" fill="white"/>
<path d="M32.1757 0H1.35069C1.35069 0 1.33788 0 1.33148 0C1.30587 0 1.28667 0 1.26106 0C1.24186 0 1.21625 0 1.19704 0C1.17784 0 1.15863 0 1.13943 0.00638468C1.11382 0.00638468 1.09461 0.0127694 1.069 0.019154C1.0498 0.019154 1.03059 0.0255387 1.01779 0.0319234C0.992182 0.0319234 0.966575 0.0446927 0.947369 0.0510774C0.928164 0.0510774 0.908958 0.0638468 0.896154 0.0702314C0.870547 0.0766161 0.851341 0.0893855 0.825733 0.0957702C0.806528 0.102155 0.787322 0.114924 0.768117 0.121309C0.748911 0.134078 0.729705 0.140463 0.7105 0.153232C0.691294 0.166002 0.672089 0.178771 0.652883 0.185156C0.633677 0.197925 0.614472 0.20431 0.595266 0.217079C0.57606 0.229848 0.563257 0.242618 0.544051 0.255387C0.524845 0.268156 0.50564 0.280926 0.492836 0.30008C0.480032 0.312849 0.460827 0.325619 0.448023 0.338388C0.428817 0.357542 0.409612 0.370311 0.390406 0.389465C0.390406 0.389465 0.384004 0.39585 0.377602 0.402235C0.3712 0.415004 0.358397 0.421389 0.351995 0.434158C0.332789 0.453312 0.319985 0.472466 0.30078 0.49162C0.287976 0.510774 0.275172 0.523543 0.262368 0.542698C0.249565 0.561852 0.236761 0.581006 0.223957 0.60016C0.211153 0.619314 0.19835 0.638468 0.191948 0.657622C0.179144 0.676776 0.172742 0.69593 0.159938 0.715084C0.147135 0.734238 0.140733 0.753392 0.134331 0.772546C0.127929 0.7917 0.115125 0.810854 0.108723 0.830008C0.102322 0.849162 0.0959197 0.868316 0.0831159 0.893855C0.0767141 0.913009 0.0703122 0.938547 0.0639103 0.957702C0.0639103 0.976856 0.0511066 1.00239 0.0447047 1.02155C0.0447047 1.0407 0.0319009 1.06624 0.0319009 1.0854C0.0319009 1.11093 0.0254991 1.13009 0.0190972 1.15563C0.0190972 1.17478 0.0190972 1.19393 0.0126953 1.21947C0.0126953 1.24501 0.0126953 1.27055 0.0126953 1.29609C0.0126953 1.30886 0.0126953 1.32163 0.0126953 1.3344V46.3847C0.0126953 47.1253 0.614472 47.7318 1.36349 47.7318H27.0158C30.6137 47.7318 33.5393 44.814 33.5393 41.2259V30.3017C33.5393 29.925 33.3793 29.5674 33.104 29.312L27.1951 23.8723L33.0976 18.5156C33.3793 18.2602 33.5393 17.8962 33.5393 17.5196V1.34717C33.5393 0.606544 32.9375 0 32.1885 0H32.1757ZM30.8249 9.65363H12.0994L4.73728 2.68795H30.8313V9.64725L30.8249 9.65363ZM2.69508 4.47566L10.2109 11.5818V45.0503H2.69508V4.47566ZM24.2758 22.8763C23.9941 23.1317 23.8341 23.4892 23.8341 23.8659C23.8341 24.2426 23.9877 24.6065 24.2694 24.8619L30.8249 30.8955V41.2322C30.8249 43.3392 29.1092 45.0503 26.9966 45.0503H12.9125V12.3416H30.8249V16.9258L24.2758 22.8699V22.8763Z" fill="white"/>
<path d="M52.4186 43.7798L51.0102 46.0655V47.8021H50.498V46.0719L49.0896 43.7798H49.6658L50.7541 45.6441L51.8488 43.7798H52.425H52.4186Z" fill="white"/>
<path d="M53.4557 44.9677C53.5645 44.7187 53.7118 44.5016 53.9038 44.3101C54.0959 44.1249 54.3264 43.9781 54.5888 43.8759C54.8513 43.7674 55.133 43.7163 55.4403 43.7163C55.7476 43.7163 56.0357 43.7674 56.2981 43.8759C56.5606 43.9781 56.7847 44.1249 56.9767 44.3101C57.1688 44.4952 57.3224 44.7123 57.4249 44.9677C57.5273 45.2231 57.5849 45.4912 57.5849 45.7849C57.5849 46.0786 57.5337 46.3468 57.4249 46.6022C57.316 46.8576 57.1688 47.0746 56.9767 47.2598C56.7847 47.445 56.5542 47.5918 56.2981 47.694C56.0421 47.7961 55.754 47.8536 55.4403 47.8536C55.1266 47.8536 54.8513 47.8025 54.5888 47.694C54.3264 47.5918 54.1023 47.445 53.9038 47.2598C53.7118 47.0746 53.5581 46.8576 53.4557 46.6022C53.3469 46.3468 53.2957 46.0786 53.2957 45.7849C53.2957 45.4912 53.3469 45.2167 53.4557 44.9677ZM54.0511 46.5958C54.1919 46.832 54.3776 47.0236 54.6208 47.1576C54.8641 47.2917 55.1394 47.362 55.4403 47.362C55.7412 47.362 56.0229 47.2917 56.2661 47.1576C56.5094 47.0236 56.695 46.832 56.8359 46.5958C56.9767 46.3596 57.0472 46.0914 57.0472 45.7849C57.0472 45.4785 56.9767 45.2103 56.8359 44.9741C56.695 44.7379 56.5094 44.5463 56.2661 44.4122C56.0229 44.2782 55.754 44.2079 55.4403 44.2079C55.1266 44.2079 54.8577 44.2782 54.6208 44.4122C54.384 44.5463 54.1919 44.7379 54.0511 44.9741C53.9102 45.2103 53.8398 45.4849 53.8398 45.7849C53.8398 46.085 53.9102 46.3596 54.0511 46.5958Z" fill="white"/>
<path d="M59.6975 43.7798V46.4805C59.6975 46.755 59.7743 46.9785 59.9343 47.1445C60.0944 47.3105 60.3184 47.3999 60.6257 47.3999C60.933 47.3999 61.1571 47.3169 61.3171 47.1445C61.4772 46.9721 61.554 46.755 61.554 46.4805V43.7798H62.0661V46.4805C62.0661 46.6784 62.0341 46.8636 61.9637 47.0296C61.8933 47.1956 61.8037 47.3424 61.6756 47.4637C61.5476 47.5851 61.3939 47.6808 61.2211 47.7511C61.0418 47.8213 60.8434 47.8532 60.6257 47.8532C60.4081 47.8532 60.2096 47.8213 60.0304 47.7511C59.8511 47.6808 59.7039 47.5851 59.5758 47.4637C59.4478 47.3424 59.3518 47.1956 59.2877 47.0296C59.2237 46.8636 59.1853 46.6784 59.1853 46.4805V43.7798H59.6975Z" fill="white"/>
<path d="M64.4221 43.7798V47.8021H63.9099V43.7798H64.4221ZM64.1916 43.7798H65.0558C65.3311 43.7798 65.5744 43.8309 65.7921 43.9266C66.0097 44.0224 66.1762 44.1629 66.3042 44.3416C66.4322 44.5204 66.4963 44.7375 66.4963 44.9865C66.4963 45.2355 66.4322 45.4462 66.3042 45.625C66.1762 45.8101 66.0033 45.9442 65.7921 46.0463C65.5744 46.1421 65.3311 46.1932 65.0558 46.1932H64.1916V45.759H65.0558C65.2351 45.759 65.3951 45.7271 65.536 45.6696C65.6768 45.6058 65.7857 45.5228 65.8625 45.4079C65.9393 45.293 65.9777 45.1525 65.9777 44.9865C65.9777 44.8205 65.9393 44.68 65.8625 44.5651C65.7857 44.4502 65.6768 44.3608 65.536 44.3033C65.3951 44.2459 65.2351 44.2139 65.0558 44.2139H64.1916V43.7798ZM65.2351 45.8165L66.7459 47.7957H66.1122L64.6589 45.8165H65.2351Z" fill="white"/>
<path d="M71.4321 43.7798V47.8021H70.9199V43.7798H71.4321ZM71.2016 45.3887H74.1017V45.8484H71.2016V45.3887ZM74.2745 43.7798V47.8021H73.7624V43.7798H74.2745Z" fill="white"/>
<path d="M76.067 44.9677C76.1759 44.7187 76.3231 44.5016 76.5152 44.3101C76.7072 44.1249 76.9377 43.9781 77.2002 43.8759C77.4626 43.7674 77.7443 43.7163 78.0516 43.7163C78.3589 43.7163 78.647 43.7674 78.9095 43.8759C79.1719 43.9781 79.396 44.1249 79.5881 44.3101C79.7801 44.4952 79.9338 44.7123 80.0362 44.9677C80.1386 45.2231 80.1962 45.4912 80.1962 45.7849C80.1962 46.0786 80.145 46.3468 80.0362 46.6022C79.9274 46.8576 79.7801 47.0746 79.5881 47.2598C79.396 47.445 79.1655 47.5918 78.9095 47.694C78.6534 47.7961 78.3653 47.8536 78.0516 47.8536C77.7379 47.8536 77.4626 47.8025 77.2002 47.694C76.9377 47.5918 76.7136 47.445 76.5152 47.2598C76.3231 47.0746 76.1695 46.8576 76.067 46.6022C75.9582 46.3468 75.907 46.0786 75.907 45.7849C75.907 45.4912 75.9582 45.2167 76.067 44.9677ZM76.6624 46.5958C76.8032 46.832 76.9889 47.0236 77.2322 47.1576C77.4754 47.2917 77.7507 47.362 78.0516 47.362C78.3525 47.362 78.6342 47.2917 78.8775 47.1576C79.1207 47.0236 79.3064 46.832 79.4472 46.5958C79.5881 46.3596 79.6585 46.0914 79.6585 45.7849C79.6585 45.4785 79.5881 45.2103 79.4472 44.9741C79.3064 44.7379 79.1207 44.5463 78.8775 44.4122C78.6342 44.2782 78.3653 44.2079 78.0516 44.2079C77.7379 44.2079 77.469 44.2782 77.2322 44.4122C76.9953 44.5463 76.8032 44.7379 76.6624 44.9741C76.5216 45.2103 76.4511 45.4849 76.4511 45.7849C76.4511 46.085 76.5216 46.3596 76.6624 46.5958Z" fill="white"/>
<path d="M82.3154 43.7798V46.4805C82.3154 46.755 82.3922 46.9785 82.5522 47.1445C82.7123 47.3105 82.9364 47.3999 83.2436 47.3999C83.5509 47.3999 83.775 47.3169 83.935 47.1445C84.0951 46.9721 84.1719 46.755 84.1719 46.4805V43.7798H84.6841V46.4805C84.6841 46.6784 84.6521 46.8636 84.5816 47.0296C84.5112 47.1956 84.4216 47.3424 84.2936 47.4637C84.1655 47.5851 84.0119 47.6808 83.839 47.7511C83.6598 47.8213 83.4613 47.8532 83.2436 47.8532C83.026 47.8532 82.8275 47.8213 82.6483 47.7511C82.469 47.6808 82.3218 47.5851 82.1937 47.4637C82.0657 47.3424 81.9697 47.1956 81.9057 47.0296C81.8416 46.8636 81.8032 46.6784 81.8032 46.4805V43.7798H82.3154Z" fill="white"/>
<path d="M86.9822 47.0044C87.091 47.1257 87.2063 47.2215 87.3407 47.2917C87.4751 47.362 87.6224 47.3939 87.7952 47.3939C88.0193 47.3939 88.205 47.3364 88.3394 47.2151C88.4738 47.0938 88.5443 46.947 88.5443 46.7618C88.5443 46.5766 88.4994 46.4362 88.4098 46.3276C88.3202 46.2191 88.205 46.1361 88.0641 46.0659C87.9233 45.9956 87.7696 45.9382 87.6096 45.8871C87.5072 45.8552 87.3855 45.8105 87.2575 45.753C87.1294 45.6956 87.0078 45.6253 86.8862 45.5423C86.7709 45.4529 86.6749 45.3508 86.5981 45.2231C86.5213 45.0954 86.4893 44.9422 86.4893 44.757C86.4893 44.5591 86.5405 44.3803 86.6493 44.2207C86.7517 44.0611 86.899 43.9398 87.0846 43.8504C87.2703 43.761 87.4815 43.7163 87.7184 43.7163C87.9553 43.7163 88.1473 43.7546 88.3202 43.8376C88.493 43.9206 88.6403 44.0228 88.7555 44.1505C88.8772 44.2782 88.9732 44.4122 89.0372 44.5527L88.5955 44.7953C88.5443 44.6932 88.4738 44.5974 88.397 44.5016C88.3138 44.4059 88.2178 44.3292 88.1025 44.2654C87.9873 44.2015 87.8465 44.176 87.68 44.176C87.4495 44.176 87.2831 44.2271 87.1807 44.3356C87.0782 44.4442 87.0206 44.5591 87.0206 44.6868C87.0206 44.7953 87.0526 44.8975 87.1102 44.9932C87.1679 45.089 87.2703 45.172 87.4175 45.255C87.5584 45.338 87.7568 45.421 88.0001 45.4976C88.1153 45.5359 88.2306 45.587 88.3586 45.6445C88.4866 45.7083 88.6019 45.7849 88.7043 45.8743C88.8131 45.9701 88.8964 46.0786 88.9668 46.2127C89.0372 46.3468 89.0692 46.5 89.0692 46.6852C89.0692 46.8703 89.0308 47.0236 88.9604 47.164C88.89 47.3045 88.7939 47.4258 88.6723 47.528C88.5507 47.6301 88.4098 47.7067 88.2562 47.7578C88.1025 47.8089 87.9361 47.8408 87.7696 47.8408C87.5392 47.8408 87.3279 47.7961 87.1294 47.7003C86.931 47.6046 86.7645 47.4833 86.6173 47.3237C86.47 47.1704 86.3484 47.0044 86.2588 46.8256L86.6685 46.5639C86.7645 46.7235 86.867 46.864 86.9758 46.9916L86.9822 47.0044Z" fill="white"/>
<path d="M91.2524 43.7798V47.8021H90.7402V43.7798H91.2524Z" fill="white"/>
<path d="M96.8413 43.7799V48.0066L93.6403 44.8142V47.8087H93.1282V43.5884L96.3291 46.7807V43.7863H96.8413V43.7799Z" fill="white"/>
<path d="M100.682 45.7594H102.648C102.648 46.0403 102.603 46.3021 102.513 46.5575C102.424 46.8129 102.296 47.03 102.123 47.2279C101.95 47.4258 101.739 47.579 101.483 47.6876C101.233 47.8025 100.945 47.86 100.618 47.86C100.292 47.86 100.029 47.8089 99.7668 47.7067C99.5043 47.6046 99.2803 47.4641 99.0818 47.279C98.8898 47.0938 98.7361 46.8767 98.6337 46.6213C98.5312 46.3659 98.4736 46.0914 98.4736 45.7913C98.4736 45.4912 98.5248 45.2167 98.6337 44.9613C98.7425 44.7059 98.8898 44.4889 99.0818 44.3037C99.2739 44.1185 99.5043 43.9717 99.7668 43.8695C100.029 43.7674 100.311 43.7163 100.618 43.7163C100.881 43.7163 101.124 43.7482 101.342 43.8121C101.559 43.8759 101.758 43.9717 101.937 44.0994C102.11 44.2271 102.264 44.3803 102.379 44.5719L102.014 44.8911C101.879 44.674 101.694 44.508 101.457 44.3867C101.22 44.2654 100.938 44.2079 100.618 44.2079C100.317 44.2079 100.048 44.2782 99.8052 44.4059C99.5619 44.5399 99.3699 44.7251 99.229 44.9613C99.0882 45.1976 99.0114 45.4721 99.0114 45.7849C99.0114 46.0978 99.0818 46.3723 99.229 46.6086C99.3699 46.8448 99.5619 47.03 99.8052 47.164C100.048 47.2981 100.317 47.3683 100.618 47.3683C100.83 47.3683 101.015 47.3364 101.182 47.279C101.348 47.2215 101.495 47.1385 101.617 47.03C101.739 46.9214 101.835 46.8001 101.918 46.6596C101.995 46.5192 102.052 46.3723 102.091 46.2191H100.682V45.7594Z" fill="white"/>
<path d="M107.494 47.0044C107.603 47.1257 107.718 47.2215 107.852 47.2917C107.987 47.362 108.134 47.3939 108.307 47.3939C108.531 47.3939 108.717 47.3364 108.851 47.2151C108.986 47.0938 109.056 46.947 109.056 46.7618C109.056 46.5766 109.011 46.4362 108.922 46.3276C108.832 46.2191 108.717 46.1361 108.576 46.0659C108.435 45.9956 108.281 45.9382 108.121 45.8871C108.019 45.8552 107.897 45.8105 107.769 45.753C107.641 45.6956 107.52 45.6253 107.398 45.5423C107.283 45.4529 107.187 45.3508 107.11 45.2231C107.033 45.0954 107.001 44.9422 107.001 44.757C107.001 44.5591 107.052 44.3803 107.161 44.2207C107.263 44.0611 107.411 43.9398 107.596 43.8504C107.782 43.761 107.993 43.7163 108.23 43.7163C108.467 43.7163 108.659 43.7546 108.832 43.8376C109.005 43.9206 109.152 44.0228 109.267 44.1505C109.389 44.2782 109.485 44.4122 109.549 44.5527L109.107 44.7953C109.056 44.6932 108.986 44.5974 108.909 44.5016C108.826 44.4059 108.729 44.3292 108.614 44.2654C108.499 44.2015 108.358 44.176 108.192 44.176C107.961 44.176 107.795 44.2271 107.692 44.3356C107.59 44.4442 107.532 44.5591 107.532 44.6868C107.532 44.7953 107.564 44.8975 107.622 44.9932C107.68 45.089 107.782 45.172 107.929 45.255C108.07 45.338 108.269 45.421 108.512 45.4976C108.627 45.5359 108.742 45.587 108.87 45.6445C108.998 45.7083 109.114 45.7849 109.216 45.8743C109.325 45.9701 109.408 46.0786 109.478 46.2127C109.549 46.3468 109.581 46.5 109.581 46.6852C109.581 46.8703 109.543 47.0236 109.472 47.164C109.402 47.3045 109.306 47.4258 109.184 47.528C109.062 47.6301 108.922 47.7067 108.768 47.7578C108.614 47.8089 108.448 47.8408 108.281 47.8408C108.051 47.8408 107.84 47.7961 107.641 47.7003C107.443 47.6046 107.276 47.4833 107.129 47.3237C106.982 47.1704 106.86 47.0044 106.771 46.8256L107.18 46.5639C107.276 46.7235 107.379 46.864 107.488 46.9916L107.494 47.0044Z" fill="white"/>
<path d="M111.764 43.7798V47.8021H111.252V43.7798H111.764ZM111.533 45.3887H114.433V45.8484H111.533V45.3887ZM114.606 43.7798V47.8021H114.094V43.7798H114.606Z" fill="white"/>
<path d="M116.392 44.9677C116.501 44.7187 116.649 44.5016 116.841 44.3101C117.033 44.1249 117.263 43.9781 117.526 43.8759C117.788 43.7674 118.07 43.7163 118.377 43.7163C118.684 43.7163 118.972 43.7674 119.235 43.8759C119.497 43.9781 119.721 44.1249 119.914 44.3101C120.106 44.4952 120.259 44.7123 120.362 44.9677C120.464 45.2231 120.522 45.4912 120.522 45.7849C120.522 46.0786 120.47 46.3468 120.362 46.6022C120.253 46.8576 120.106 47.0746 119.914 47.2598C119.721 47.445 119.491 47.5918 119.235 47.694C118.979 47.7961 118.691 47.8536 118.377 47.8536C118.063 47.8536 117.788 47.8025 117.526 47.694C117.263 47.5918 117.039 47.445 116.841 47.2598C116.649 47.0746 116.495 46.8576 116.392 46.6022C116.284 46.3468 116.232 46.0786 116.232 45.7849C116.232 45.4912 116.284 45.2167 116.392 44.9677ZM116.988 46.5958C117.129 46.832 117.314 47.0236 117.558 47.1576C117.801 47.2917 118.076 47.362 118.377 47.362C118.678 47.362 118.96 47.2917 119.203 47.1576C119.446 47.0236 119.632 46.832 119.773 46.5958C119.913 46.3596 119.984 46.0914 119.984 45.7849C119.984 45.4785 119.913 45.2103 119.773 44.9741C119.632 44.7379 119.446 44.5463 119.203 44.4122C118.96 44.2782 118.691 44.2079 118.377 44.2079C118.063 44.2079 117.794 44.2782 117.558 44.4122C117.321 44.5463 117.129 44.7379 116.988 44.9741C116.847 45.2103 116.777 45.4849 116.777 45.7849C116.777 46.085 116.847 46.3596 116.988 46.5958Z" fill="white"/>
<path d="M122.673 43.7798V47.8021H122.161V43.7798H122.673ZM122.442 43.7798H123.307C123.582 43.7798 123.825 43.8309 124.043 43.9266C124.26 44.0224 124.427 44.1629 124.555 44.3416C124.683 44.5204 124.747 44.7375 124.747 44.9865C124.747 45.2355 124.683 45.4462 124.555 45.625C124.427 45.8101 124.254 45.9442 124.043 46.0463C123.825 46.1421 123.582 46.1932 123.307 46.1932H122.442V45.759H123.307C123.486 45.759 123.646 45.7271 123.787 45.6696C123.928 45.6058 124.036 45.5228 124.113 45.4079C124.19 45.293 124.228 45.1525 124.228 44.9865C124.228 44.8205 124.19 44.68 124.113 44.5651C124.036 44.4502 123.928 44.3608 123.787 44.3033C123.646 44.2459 123.486 44.2139 123.307 44.2139H122.442V43.7798ZM123.486 45.8165L124.997 47.7957H124.363L122.91 45.8165H123.486Z" fill="white"/>
<path d="M126.027 43.7798H128.716V44.2395H127.628V47.8021H127.116V44.2395H126.027V43.7798Z" fill="white"/>
<path d="M130.387 46.6081C130.534 46.8443 130.726 47.0295 130.963 47.1636C131.2 47.2977 131.456 47.3679 131.738 47.3679C131.936 47.3679 132.122 47.3424 132.288 47.2913C132.455 47.2402 132.609 47.17 132.743 47.0806C132.877 46.9912 132.999 46.889 133.095 46.7677V47.4126C132.916 47.5594 132.724 47.6744 132.513 47.7446C132.301 47.8148 132.045 47.8531 131.732 47.8531C131.437 47.8531 131.162 47.8021 130.906 47.6999C130.65 47.5977 130.426 47.4573 130.233 47.2721C130.041 47.087 129.888 46.8699 129.779 46.6145C129.67 46.3591 129.619 46.0846 129.619 45.7845C129.619 45.4844 129.677 45.2099 129.779 44.9545C129.888 44.6991 130.041 44.482 130.233 44.2969C130.426 44.1117 130.65 43.9649 130.906 43.8627C131.162 43.7605 131.437 43.7095 131.732 43.7095C132.039 43.7095 132.301 43.7478 132.513 43.818C132.724 43.8882 132.916 44.0032 133.095 44.15V44.7949C132.999 44.6736 132.884 44.5714 132.743 44.482C132.609 44.3926 132.455 44.3224 132.288 44.2713C132.122 44.2202 131.936 44.1947 131.738 44.1947C131.463 44.1947 131.2 44.2649 130.963 44.3926C130.726 44.5267 130.534 44.7119 130.387 44.9481C130.24 45.1843 130.169 45.4589 130.169 45.7717C130.169 46.0846 130.24 46.3591 130.387 46.5953V46.6081Z" fill="white"/>
<path d="M135.393 43.7798V46.4805C135.393 46.755 135.47 46.9785 135.63 47.1445C135.79 47.3105 136.014 47.3999 136.322 47.3999C136.629 47.3999 136.853 47.3169 137.013 47.1445C137.173 46.9721 137.25 46.755 137.25 46.4805V43.7798H137.762V46.4805C137.762 46.6784 137.73 46.8636 137.66 47.0296C137.589 47.1956 137.499 47.3424 137.371 47.4637C137.243 47.5851 137.09 47.6808 136.917 47.7511C136.738 47.8213 136.539 47.8532 136.322 47.8532C136.104 47.8532 135.905 47.8213 135.726 47.7511C135.547 47.6808 135.4 47.5851 135.272 47.4637C135.144 47.3424 135.048 47.1956 134.984 47.0296C134.92 46.8636 134.881 46.6784 134.881 46.4805V43.7798H135.393Z" fill="white"/>
<path d="M139.177 43.7798H141.866V44.2395H140.777V47.8021H140.265V44.2395H139.177V43.7798Z" fill="white"/>
</g>
<defs>
<clipPath id="clip0_6_1002">
<rect width="142" height="48" fill="white"/>
</clipPath>
</defs>
</svg>
