<svg width="17" height="17" viewBox="0 0 17 17" fill="none" xmlns="http://www.w3.org/2000/svg">
<path fill-rule="evenodd" clip-rule="evenodd" d="M7.63159 1.36782C4.1722 1.36782 1.36782 4.17219 1.36782 7.63155C1.36782 11.0909 4.1722 13.8953 7.63159 13.8953C11.091 13.8953 13.8954 11.0909 13.8954 7.63155C13.8954 4.17219 11.091 1.36782 7.63159 1.36782ZM0 7.63155C0 3.41676 3.41678 0 7.63159 0C11.8464 0 15.2632 3.41676 15.2632 7.63155C15.2632 11.8463 11.8464 15.2631 7.63159 15.2631C3.41678 15.2631 0 11.8463 0 7.63155Z" fill="white"/>
<path fill-rule="evenodd" clip-rule="evenodd" d="M12.0547 12.0547C12.3218 11.7876 12.7548 11.7876 13.0219 12.0547L16.7997 15.8325C17.0668 16.0996 17.0668 16.5326 16.7997 16.7997C16.5326 17.0668 16.0996 17.0668 15.8325 16.7997L12.0547 13.0219C11.7876 12.7548 11.7876 12.3218 12.0547 12.0547Z" fill="white"/>
</svg>
