<svg width="22" height="22" viewBox="0 0 22 22" fill="none" xmlns="http://www.w3.org/2000/svg">
<g clip-path="url(#clip0_0_357)">
<path d="M21.8182 4.06689C21.0292 4.4165 20.1817 4.65272 19.2906 4.75949C20.21 4.20937 20.8978 3.34355 21.2258 2.32358C20.362 2.83664 19.4166 3.19778 18.4308 3.3913C17.7678 2.68345 16.8897 2.21428 15.9328 2.05662C14.9759 1.89897 13.9937 2.06165 13.1387 2.51941C12.2837 2.97717 11.6038 3.7044 11.2045 4.58819C10.8051 5.47198 10.7088 6.46288 10.9303 7.40706C9.18007 7.31918 7.46788 6.86427 5.90485 6.07185C4.34182 5.27942 2.96288 4.1672 1.85751 2.80736C1.47956 3.45933 1.26223 4.21524 1.26223 5.02028C1.26181 5.745 1.44028 6.45862 1.7818 7.09783C2.12333 7.73703 2.61735 8.28206 3.22003 8.68454C2.52108 8.6623 1.83755 8.47344 1.22633 8.13367V8.19037C1.22626 9.20682 1.57786 10.192 2.22146 10.9787C2.86507 11.7654 3.76105 12.3053 4.75736 12.5066C4.10897 12.6821 3.42917 12.7079 2.76932 12.5822C3.05042 13.4568 3.59798 14.2216 4.33535 14.7695C5.07271 15.3175 5.96296 15.6211 6.88146 15.638C5.32225 16.862 3.39662 17.5259 1.41436 17.523C1.06322 17.5231 0.712382 17.5026 0.363647 17.4616C2.37576 18.7553 4.718 19.4419 7.11013 19.4392C15.2078 19.4392 19.6346 12.7324 19.6346 6.91572C19.6346 6.72674 19.6298 6.53587 19.6213 6.3469C20.4824 5.72419 21.2257 4.95309 21.8163 4.06972L21.8182 4.06689Z" fill="#F7553D"/>
</g>
<defs>
<clipPath id="clip0_0_357">
<rect width="21.4546" height="21.4546" fill="white" transform="translate(0.363647 0.210205)"/>
</clipPath>
</defs>
</svg>
