<svg width="22" height="22" viewBox="0 0 22 22" fill="none" xmlns="http://www.w3.org/2000/svg">
<g clip-path="url(#clip0_0_358)">
<path d="M12.5486 10.7509L10.0389 9.57981C9.81989 9.47812 9.63999 9.5921 9.63999 9.83458V12.0404C9.63999 12.2829 9.81989 12.3968 10.0389 12.2952L12.5475 11.1241C12.7677 11.0213 12.7677 10.8537 12.5486 10.7509ZM10.7574 0.210205C4.83283 0.210205 0.0301361 5.0129 0.0301361 10.9375C0.0301361 16.8621 4.83283 21.6648 10.7574 21.6648C16.682 21.6648 21.4847 16.8621 21.4847 10.9375C21.4847 5.0129 16.682 0.210205 10.7574 0.210205ZM10.7574 15.2954C5.26639 15.2954 5.17029 14.8004 5.17029 10.9375C5.17029 7.07454 5.26639 6.57952 10.7574 6.57952C16.2484 6.57952 16.3445 7.07454 16.3445 10.9375C16.3445 14.8004 16.2484 15.2954 10.7574 15.2954Z" fill="#F7553D"/>
</g>
<defs>
<clipPath id="clip0_0_358">
<rect width="21.4546" height="21.4546" fill="white" transform="translate(0.0301361 0.210205)"/>
</clipPath>
</defs>
</svg>
